<mxfile host="app.diagrams.net" modified="2024-02-07T14:28:43.133Z" agent="Mozilla/5.0 (X11; Linux x86_64; rv:121.0) Gecko/20100101 Firefox/121.0" version="23.1.1" etag="8eQei9o0e9LkpMbuF8og" type="github">
  <diagram name="Page-1" id="2yHYhK1jgiq9q4ryIXGP">
    <mxGraphModel>
      <root>
        <mxCell id="0" />
        <mxCell id="1" parent="0" />
      </root>
    </mxGraphModel>
  </diagram>
</mxfile>
